<svg width="46" height="46" viewBox="0 0 46 46" fill="none" xmlns="http://www.w3.org/2000/svg">
<path d="M22.9997 22.0417C21.7288 22.0417 20.5101 21.5369 19.6115 20.6383C18.7128 19.7396 18.208 18.5209 18.208 17.25C18.208 15.9792 18.7128 14.7604 19.6115 13.8618C20.5101 12.9632 21.7288 12.4584 22.9997 12.4584C24.2705 12.4584 25.4893 12.9632 26.3879 13.8618C27.2865 14.7604 27.7913 15.9792 27.7913 17.25C27.7913 17.8793 27.6674 18.5024 27.4266 19.0837C27.1858 19.6651 26.8328 20.1933 26.3879 20.6383C25.9429 21.0832 25.4147 21.4362 24.8334 21.677C24.252 21.9178 23.6289 22.0417 22.9997 22.0417ZM22.9997 3.83337C19.4414 3.83337 16.0288 5.24691 13.5127 7.76302C10.9965 10.2791 9.58301 13.6917 9.58301 17.25C9.58301 27.3125 22.9997 42.1667 22.9997 42.1667C22.9997 42.1667 36.4163 27.3125 36.4163 17.25C36.4163 13.6917 35.0028 10.2791 32.4867 7.76302C29.9706 5.24691 26.558 3.83337 22.9997 3.83337Z" fill="#5061FF"/>
</svg>
