<svg xmlns="http://www.w3.org/2000/svg" width="18" height="18" fill="none" viewBox="0 0 18 18"><path fill="#888" d="M8.5 13.5h1v-4h4v-1h-4v-4h-1v4h-4v1h4v4zm.503 4.5a8.779 8.779 0 0 1-3.51-.708 9.103 9.103 0 0 1-2.859-1.924 9.072 9.072 0 0 1-1.925-2.856A8.756 8.756 0 0 1 0 9.003c0-1.244.236-2.414.708-3.51a9.103 9.103 0 0 1 1.924-2.859A9.073 9.073 0 0 1 5.488.709 8.756 8.756 0 0 1 8.997 0c1.244 0 2.414.236 3.51.708a9.104 9.104 0 0 1 2.859 1.924 9.073 9.073 0 0 1 1.925 2.856A8.756 8.756 0 0 1 18 8.997a8.779 8.779 0 0 1-.708 3.51 9.104 9.104 0 0 1-1.924 2.859 9.072 9.072 0 0 1-2.856 1.925A8.756 8.756 0 0 1 9.003 18z"/></svg>