<svg xmlns="http://www.w3.org/2000/svg" width="30" height="16" fill="none" viewBox="0 0 14 16"><path fill="#888" d="M0 14.998V6.306a1.6 1.6 0 0 1 .172-.727 1.56 1.56 0 0 1 .474-.566L6.031.936c.281-.215.603-.323.966-.323.362 0 .686.108.972.323l5.385 4.077c.202.149.36.338.474.566a1.6 1.6 0 0 1 .172.727v8.692a.96.96 0 0 1-.299.701c-.2.2-.434.3-.701.3H9.615a.781.781 0 0 1-.575-.233.782.782 0 0 1-.232-.576v-4.769a.78.78 0 0 0-.233-.575A.78.78 0 0 0 8 9.613H6a.78.78 0 0 0-.575.233.78.78 0 0 0-.233.575v4.77a.78.78 0 0 1-.232.575.781.781 0 0 1-.575.232H1a.96.96 0 0 1-.701-.299A.962.962 0 0 1 0 15z"/></svg>