<svg xmlns="http://www.w3.org/2000/svg" width="17" height="17" fill="none" viewBox="0 0 17 17"><path fill="#888" d="M4.954 16.998H1a.964.964 0 0 1-.71-.29.961.961 0 0 1-.29-.71v-3.954a2.85 2.85 0 0 0 1.427-.945c.382-.463.573-.997.573-1.6 0-.605-.191-1.138-.573-1.602A2.85 2.85 0 0 0 0 6.952V2.998c0-.28.097-.517.29-.71a.961.961 0 0 1 .71-.29h4c.18-.572.495-1.029.946-1.37A2.5 2.5 0 0 1 7.5.112a2.5 2.5 0 0 1 1.554.514c.45.342.766.8.946 1.371h4c.28 0 .517.097.71.29.193.193.29.43.29.71v4c.572.18 1.029.496 1.371.946a2.5 2.5 0 0 1 .514 1.554 2.5 2.5 0 0 1-.514 1.554c-.342.45-.799.766-1.371.946v4c0 .28-.097.518-.29.71a.964.964 0 0 1-.71.29h-3.954a2.814 2.814 0 0 0-.97-1.452 2.493 2.493 0 0 0-1.576-.548c-.583 0-1.109.183-1.576.548-.467.366-.79.85-.97 1.452z"/></svg>