<svg xmlns="http://www.w3.org/2000/svg" width="18" height="18" fill="none" viewBox="0 0 18 18"><path fill="#888" d="M9.003 18a8.779 8.779 0 0 1-3.51-.708 9.103 9.103 0 0 1-2.859-1.924 9.072 9.072 0 0 1-1.925-2.856A8.756 8.756 0 0 1 0 9.003c0-1.244.236-2.414.708-3.51a9.103 9.103 0 0 1 1.924-2.859A9.073 9.073 0 0 1 5.488.709 8.756 8.756 0 0 1 8.997 0c1.244 0 2.414.236 3.51.708a9.104 9.104 0 0 1 2.859 1.924 9.073 9.073 0 0 1 1.925 2.856A8.756 8.756 0 0 1 18 8.997a8.779 8.779 0 0 1-.708 3.51 9.104 9.104 0 0 1-1.924 2.859 9.072 9.072 0 0 1-2.856 1.925A8.756 8.756 0 0 1 9.003 18zM9 17c2.233 0 4.125-.775 5.675-2.325C16.225 13.125 17 11.233 17 9c0-2.233-.775-4.125-2.325-5.675C13.125 1.775 11.233 1 9 1c-2.233 0-4.125.775-5.675 2.325C1.775 4.875 1 6.767 1 9c0 2.233.775 4.125 2.325 5.675C4.875 16.225 6.767 17 9 17z"/></svg>