<svg width="16" height="16" viewBox="0 0 16 16" fill="none" xmlns="http://www.w3.org/2000/svg">
<g id="Group">
<path id="Vector (Stroke)" fill-rule="evenodd" clip-rule="evenodd" d="M9.60596 4.76768C9.60596 4.32138 9.96549 3.95959 10.409 3.95959H10.417C10.8605 3.95959 11.2201 4.32138 11.2201 4.76768C11.2201 5.21397 10.8605 5.57576 10.417 5.57576H10.409C9.96549 5.57576 9.60596 5.21397 9.60596 4.76768Z" fill="white"/>
<path id="Vector (Stroke) (Stroke)" fill-rule="evenodd" clip-rule="evenodd" d="M0 3.9596C0 1.81934 1.73622 0 3.98484 0H12.0152C14.2638 0 16 1.81934 16 3.9596V12.0404C16 14.1807 14.2638 16 12.0152 16H3.98484C1.73622 16 0 14.1807 0 12.0404V3.9596ZM3.98484 1.45455C2.68543 1.45455 1.54541 2.52953 1.54541 3.9596V12.0404C1.54541 13.4705 2.68543 14.5455 3.98484 14.5455H12.0152C13.3146 14.5455 14.4546 13.4705 14.4546 12.0404V3.9596C14.4546 2.52953 13.3146 1.45455 12.0152 1.45455H3.98484Z" fill="white"/>
<path id="Vector (Stroke) (Stroke)_2" fill-rule="evenodd" clip-rule="evenodd" d="M3.70413 6.9021C4.29434 6.33059 5.08102 5.92334 5.99236 5.92334C6.90371 5.92334 7.69038 6.33059 8.2806 6.9021L8.2857 6.90704L8.30174 6.92292L12.3169 10.9634C12.6038 11.252 12.5959 11.7125 12.2994 11.9917C12.0028 12.271 11.5298 12.2634 11.2429 11.9747L7.23024 7.93676L7.22443 7.93102C6.84779 7.56726 6.42246 7.37789 5.99236 7.37789C5.56226 7.37789 5.13693 7.56726 4.76028 7.93103L4.75445 7.93679L1.54483 11.1666C1.25794 11.4553 0.784962 11.4629 0.4884 11.1836C0.191837 10.9044 0.183992 10.444 0.470877 10.1553L3.688 6.91792L3.70413 6.9021Z" fill="white"/>
<path id="Vector (Stroke) (Stroke)_3" fill-rule="evenodd" clip-rule="evenodd" d="M9.3511 8.50988C9.94007 7.93958 10.7183 7.53955 11.6136 7.53955C12.5088 7.53955 13.2871 7.93958 13.876 8.50988L13.8811 8.51473L13.897 8.53053L15.5031 10.1467C15.7853 10.4307 15.7853 10.8912 15.5031 11.1752C15.2208 11.4593 14.7632 11.4593 14.481 11.1752L12.8774 9.56155L12.8714 9.55571C12.4935 9.19068 12.0598 8.9941 11.6136 8.9941C11.1674 8.9941 10.7336 9.19069 10.3557 9.55571L10.3498 9.56155L9.54921 10.3672C9.26696 10.6512 8.80936 10.6512 8.52711 10.3672C8.24487 10.0831 8.24487 9.62266 8.52711 9.33864L9.33506 8.52561L9.3511 8.50988Z" fill="white"/>
</g>
</svg>
