<svg width="28" height="28" viewBox="0 0 28 28" fill="none" xmlns="http://www.w3.org/2000/svg">
<g id="Home">
<path id="Vector" d="M5.83331 22.1667V12.026C5.83331 11.7273 5.9002 11.4446 6.03398 11.1778C6.16698 10.911 6.35131 10.6909 6.58698 10.5175L12.8695 5.76099C13.1977 5.50977 13.5734 5.38416 13.9965 5.38416C14.4188 5.38416 14.7968 5.50977 15.1305 5.76099L21.413 10.5175C21.6486 10.6909 21.833 10.911 21.966 11.1778C22.0998 11.4446 22.1666 11.7273 22.1666 12.026V22.1667C22.1666 22.4793 22.0504 22.7519 21.8178 22.9845C21.5845 23.217 21.3119 23.3333 21 23.3333H17.0508C16.784 23.3333 16.5604 23.2431 16.38 23.0627C16.1995 22.8822 16.1093 22.6582 16.1093 22.3907V16.8268C16.1093 16.56 16.0187 16.3364 15.8375 16.156C15.657 15.9748 15.4334 15.8842 15.1666 15.8842H12.8333C12.5665 15.8842 12.3429 15.9748 12.1625 16.156C11.9813 16.3364 11.8906 16.56 11.8906 16.8268V22.3918C11.8906 22.6586 11.8004 22.8822 11.62 23.0627C11.4395 23.2431 11.2159 23.3333 10.9491 23.3333H6.99998C6.68731 23.3333 6.4147 23.217 6.18215 22.9845C5.94959 22.7512 5.83331 22.4785 5.83331 22.1667Z" fill="currentColor"/>
</g>
</svg>
