<svg width="24" height="24" viewBox="0 0 24 24" fill="none" xmlns="http://www.w3.org/2000/svg">
<path fill-rule="evenodd" clip-rule="evenodd" d="M13.606 8.76768C13.606 8.32138 13.9655 7.95959 14.409 7.95959H14.417C14.8605 7.95959 15.2201 8.32138 15.2201 8.76768C15.2201 9.21397 14.8605 9.57576 14.417 9.57576H14.409C13.9655 9.57576 13.606 9.21397 13.606 8.76768Z" fill="currentColor"/>
<path fill-rule="evenodd" clip-rule="evenodd" d="M4 7.9596C4 5.81934 5.73622 4 7.98484 4H16.0152C18.2638 4 20 5.81934 20 7.9596V16.0404C20 18.1807 18.2638 20 16.0152 20H7.98484C5.73622 20 4 18.1807 4 16.0404V7.9596ZM7.98484 5.45455C6.68543 5.45455 5.54541 6.52953 5.54541 7.9596V16.0404C5.54541 17.4705 6.68543 18.5455 7.98484 18.5455H16.0152C17.3146 18.5455 18.4546 17.4705 18.4546 16.0404V7.9596C18.4546 6.52953 17.3146 5.45455 16.0152 5.45455H7.98484Z" fill="currentColor"/>
<path fill-rule="evenodd" clip-rule="evenodd" d="M7.70413 10.9021C8.29434 10.3306 9.08102 9.92334 9.99236 9.92334C10.9037 9.92334 11.6904 10.3306 12.2806 10.9021L12.2857 10.907L12.3017 10.9229L16.3169 14.9634C16.6038 15.252 16.5959 15.7125 16.2994 15.9917C16.0028 16.271 15.5298 16.2634 15.2429 15.9747L11.2302 11.9368L11.2244 11.931C10.8478 11.5673 10.4225 11.3779 9.99236 11.3779C9.56226 11.3779 9.13693 11.5673 8.76028 11.931L8.75445 11.9368L5.54483 15.1666C5.25794 15.4553 4.78496 15.4629 4.4884 15.1836C4.19184 14.9044 4.18399 14.444 4.47088 14.1553L7.688 10.9179L7.70413 10.9021Z" fill="currentColor"/>
<path fill-rule="evenodd" clip-rule="evenodd" d="M13.3511 12.5099C13.9401 11.9396 14.7183 11.5396 15.6136 11.5396C16.5088 11.5396 17.2871 11.9396 17.876 12.5099L17.8811 12.5147L17.897 12.5305L19.5031 14.1467C19.7853 14.4307 19.7853 14.8912 19.5031 15.1752C19.2208 15.4593 18.7632 15.4593 18.481 15.1752L16.8774 13.5616L16.8714 13.5557C16.4935 13.1907 16.0598 12.9941 15.6136 12.9941C15.1674 12.9941 14.7336 13.1907 14.3557 13.5557L14.3498 13.5615L13.5492 14.3672C13.267 14.6512 12.8094 14.6512 12.5271 14.3672C12.2449 14.0831 12.2449 13.6227 12.5271 13.3386L13.3351 12.5256L13.3511 12.5099Z" fill="currentColor"/>
</svg>
