<svg width="10" height="18" viewBox="0 0 10 18" fill="none" xmlns="http://www.w3.org/2000/svg">
<path d="M1.81977 9.00195L9.53477 16.7169C9.68144 16.8649 9.7541 17.0416 9.75277 17.2469C9.75077 17.4516 9.6761 17.6276 9.52877 17.7749C9.38144 17.9223 9.2051 17.9959 8.99977 17.9959C8.79444 17.9959 8.6181 17.9226 8.47077 17.7759L0.82977 10.1379C0.668436 9.97595 0.550436 9.79595 0.47577 9.59795C0.401103 9.39861 0.36377 9.19961 0.36377 9.00095C0.36377 8.80228 0.401103 8.60361 0.47577 8.40495C0.550436 8.20628 0.668436 8.02628 0.82977 7.86495L8.46977 0.221946C8.6171 0.074613 8.79444 0.00194643 9.00177 0.00394643C9.20844 0.00594643 9.38577 0.0806131 9.53377 0.227946C9.68177 0.37528 9.7551 0.551613 9.75377 0.756946C9.75377 0.961613 9.68044 1.13795 9.53377 1.28595L1.81977 9.00195Z" fill="white"/>
</svg>
