<svg width="14" height="14" viewBox="0 0 14 14" fill="none" xmlns="http://www.w3.org/2000/svg">
<path d="M7.00023 7.70872L1.75423 12.9547C1.6609 13.0481 1.54623 13.0981 1.41023 13.1047C1.27423 13.1114 1.1529 13.0614 1.04623 12.9547C0.939564 12.8481 0.88623 12.7301 0.88623 12.6007C0.88623 12.4714 0.939564 12.3534 1.04623 12.2467L6.29223 7.00072L1.04623 1.75472C0.952897 1.66139 0.902897 1.54672 0.89623 1.41072C0.889564 1.27472 0.939564 1.15339 1.04623 1.04672C1.1529 0.940052 1.2709 0.886719 1.40023 0.886719C1.52956 0.886719 1.64756 0.940052 1.75423 1.04672L7.00023 6.29272L12.2462 1.04672C12.3396 0.953385 12.4542 0.903385 12.5902 0.896719C12.7262 0.890052 12.8476 0.940052 12.9542 1.04672C13.0609 1.15339 13.1142 1.27139 13.1142 1.40072C13.1142 1.53005 13.0609 1.64805 12.9542 1.75472L7.70823 7.00072L12.9542 12.2467C13.0476 12.3401 13.0976 12.4547 13.1042 12.5907C13.1109 12.7267 13.0609 12.8481 12.9542 12.9547C12.8476 13.0614 12.7296 13.1147 12.6002 13.1147C12.4709 13.1147 12.3529 13.0614 12.2462 12.9547L7.00023 7.70872Z" fill="white"/>
</svg>
