<svg width="14" height="16" viewBox="0 0 14 16" fill="none" xmlns="http://www.w3.org/2000/svg">
<path d="M0 14.9983V6.30628C0 6.05028 0.0573333 5.80795 0.172 5.57928C0.286 5.35062 0.444 5.16195 0.646 5.01328L6.031 0.936282C6.31233 0.720948 6.63433 0.613281 6.997 0.613281C7.359 0.613281 7.683 0.720948 7.969 0.936282L13.354 5.01328C13.556 5.16195 13.714 5.35062 13.828 5.57928C13.9427 5.80795 14 6.05028 14 6.30628V14.9983C14 15.2663 13.9003 15.4999 13.701 15.6993C13.501 15.8986 13.2673 15.9983 13 15.9983H9.615C9.38633 15.9983 9.19467 15.9209 9.04 15.7663C8.88533 15.6116 8.808 15.4196 8.808 15.1903V10.4213C8.808 10.1926 8.73033 10.0009 8.575 9.84628C8.42033 9.69095 8.22867 9.61328 8 9.61328H6C5.77133 9.61328 5.57967 9.69095 5.425 9.84628C5.26967 10.0009 5.192 10.1926 5.192 10.4213V15.1913C5.192 15.4199 5.11467 15.6116 4.96 15.7663C4.80533 15.9209 4.61367 15.9983 4.385 15.9983H1C0.732 15.9983 0.498333 15.8986 0.299 15.6993C0.0996664 15.4993 0 15.2656 0 14.9983Z" fill="white"/>
</svg>
