<svg width="92" height="18" viewBox="0 0 92 18" fill="none" xmlns="http://www.w3.org/2000/svg">
<path d="M0.632812 0.03125H4.07812L8.25 7.53125H8.41406L12.5859 0.03125H16.0312L9.86719 10.6484V17H6.82031V10.6484L0.632812 0.03125ZM21.0703 17.2578C17.3555 17.2578 14.9766 14.6211 14.9766 10.6953C14.9766 6.73438 17.3555 4.10938 21.0703 4.10938C24.7969 4.10938 27.1758 6.73438 27.1641 10.6953C27.1758 14.6211 24.7969 17.2578 21.0703 17.2578ZM18 10.6719C18 13.0039 19.0195 14.8672 21.0938 14.8672C23.1328 14.8672 24.1523 13.0039 24.1406 10.6719C24.1523 8.33984 23.1328 6.46484 21.0938 6.47656C19.0195 6.46484 18 8.33984 18 10.6719ZM37.6172 11.6562V4.27344H40.5938V17H37.7109V14.75H37.5703C36.9844 16.168 35.6484 17.1641 33.75 17.1641C31.2305 17.1641 29.4961 15.4297 29.4844 12.3828V4.27344H32.4844V11.9141C32.4844 13.5312 33.4453 14.5625 34.8984 14.5625C36.2109 14.5625 37.6172 13.6016 37.6172 11.6562ZM49.8047 4.27344V6.57031H47.2969V13.1797C47.2969 14.3984 47.9062 14.6445 48.6562 14.6562C49.0078 14.668 49.5938 14.6328 49.9688 14.6094V17.0469C49.6172 17.1055 49.043 17.1758 48.2812 17.1641C46.0312 17.1758 44.2969 16.0625 44.3203 13.6719V6.57031H42.4922V4.27344H44.3203V1.22656H47.2969V4.27344H49.8047ZM60.2344 11.6562V4.27344H63.2109V17H60.3281V14.75H60.1875C59.6016 16.168 58.2656 17.1641 56.3672 17.1641C53.8477 17.1641 52.1133 15.4297 52.1016 12.3828V4.27344H55.1016V11.9141C55.1016 13.5312 56.0625 14.5625 57.5156 14.5625C58.8281 14.5625 60.2344 13.6016 60.2344 11.6562ZM66.2109 17V0.03125H69.2109V6.35938H69.3281C69.7852 5.45703 70.7109 4.10938 72.9609 4.10938C75.9023 4.10938 78.2227 6.40625 78.2344 10.6484C78.2227 14.832 75.9727 17.2227 72.9844 17.2344C70.7812 17.2227 69.7969 15.9219 69.3281 14.9844H69.1406V17H66.2109ZM69.1406 10.625C69.1406 13.1094 70.2305 14.7734 72.1406 14.7734C74.1328 14.7734 75.1758 13.0273 75.1875 10.625C75.1758 8.25781 74.1562 6.55859 72.1406 6.54688C70.207 6.55859 69.1406 8.15234 69.1406 10.625ZM86.2266 17.2578C82.3945 17.2578 80.0391 14.7031 80.0391 10.7188C80.0391 6.78125 82.4297 4.10938 86.0625 4.10938C89.1797 4.10938 91.875 6.06641 91.875 10.5312V11.4688H82.9922C83.0391 13.6367 84.3164 14.9258 86.25 14.9141C87.5625 14.9258 88.4414 14.3633 88.8281 13.6016H91.7578C91.2188 15.8047 89.1797 17.2578 86.2266 17.2578ZM83.0039 9.42969H89.0156C89.0039 7.69531 87.832 6.42969 86.1094 6.42969C84.3164 6.42969 83.1094 7.8125 83.0039 9.42969Z" fill="white"/>
</svg>
