<svg width="18" height="18" viewBox="0 0 18 18" fill="none" xmlns="http://www.w3.org/2000/svg">
<path d="M16.4851 17.1545L10.2231 10.8925C9.7231 11.3185 9.14811 11.6482 8.49811 11.8815C7.84811 12.1149 7.19477 12.2315 6.53811 12.2315C4.93677 12.2315 3.58144 11.6772 2.47211 10.5685C1.36277 9.4592 0.808105 8.1042 0.808105 6.50353C0.808105 4.90286 1.36211 3.5472 2.47011 2.43653C3.57877 1.3252 4.93344 0.769531 6.53411 0.769531C8.13544 0.769531 9.49144 1.3242 10.6021 2.43353C11.7128 3.54286 12.2681 4.89853 12.2681 6.50053C12.2681 7.1952 12.1451 7.86753 11.8991 8.51753C11.6524 9.16753 11.3291 9.72353 10.9291 10.1855L17.1911 16.4465L16.4841 17.1545H16.4851ZM6.53811 11.2305C7.86477 11.2305 8.98511 10.7739 9.89911 9.86053C10.8124 8.9472 11.2691 7.82686 11.2691 6.49953C11.2691 5.17286 10.8124 4.05286 9.89911 3.13953C8.98577 2.2262 7.86577 1.76953 6.5391 1.76953C5.21244 1.76953 4.09211 2.2262 3.17811 3.13953C2.26477 4.05286 1.80811 5.17286 1.80811 6.49953C1.80811 7.8262 2.26477 8.9462 3.17811 9.85953C4.09144 10.7729 5.21144 11.2305 6.53811 11.2305Z" fill="white"/>
</svg>
