<svg width="17" height="17" viewBox="0 0 17 17" fill="none" xmlns="http://www.w3.org/2000/svg">
<path d="M4.954 16.9983H1C0.719333 16.9983 0.482667 16.9016 0.29 16.7083C0.0966666 16.5163 0 16.2796 0 15.9983V12.0443C0.569333 11.8776 1.045 11.5626 1.427 11.0993C1.809 10.6359 2 10.1023 2 9.49828C2 8.89428 1.809 8.36061 1.427 7.89728C1.045 7.43395 0.569333 7.11895 0 6.95228V2.99828C0 2.71761 0.0966666 2.48095 0.29 2.28828C0.482 2.09495 0.718667 1.99828 1 1.99828H5C5.18 1.42628 5.49533 0.969281 5.946 0.627281C6.39733 0.284615 6.91533 0.113281 7.5 0.113281C8.08467 0.113281 8.60267 0.284615 9.054 0.627281C9.50467 0.969281 9.82 1.42628 10 1.99828H14C14.2807 1.99828 14.5173 2.09495 14.71 2.28828C14.9033 2.48095 15 2.71761 15 2.99828V6.99828C15.572 7.17828 16.029 7.49362 16.371 7.94428C16.7137 8.39561 16.885 8.91362 16.885 9.49828C16.885 10.0829 16.7137 10.6009 16.371 11.0523C16.029 11.5029 15.572 11.8183 15 11.9983V15.9983C15 16.2789 14.9033 16.5156 14.71 16.7083C14.5173 16.9016 14.2807 16.9983 14 16.9983H10.046C9.866 16.3956 9.54267 15.9116 9.076 15.5463C8.60867 15.1809 8.08333 14.9983 7.5 14.9983C6.91667 14.9983 6.39133 15.1809 5.924 15.5463C5.45733 15.9116 5.134 16.3956 4.954 16.9983Z" fill="white"/>
</svg>
