<svg width="24" height="24" viewBox="0 0 24 24" fill="none" xmlns="http://www.w3.org/2000/svg">
<path d="M11.4998 21.4501V19.9881C9.41647 19.7934 7.69647 19.0177 6.3398 17.661C4.98314 16.3044 4.2068 14.584 4.0108 12.5H2.5498V11.5H4.0118C4.20647 9.41672 4.98214 7.69672 6.3388 6.34005C7.69547 4.98338 9.4158 4.20705 11.4998 4.01105V2.55005H12.4998V4.01205C14.5831 4.20672 16.3031 4.98238 17.6598 6.33905C19.0165 7.69572 19.7925 9.41605 19.9878 11.5H21.4498V12.5H19.9878C19.7931 14.5834 19.0175 16.3034 17.6608 17.66C16.3041 19.0167 14.5838 19.7931 12.4998 19.989V21.451L11.4998 21.4501ZM11.9998 19C13.9331 19 15.5831 18.3167 16.9498 16.95C18.3165 15.5834 18.9998 13.9334 18.9998 12C18.9998 10.0667 18.3165 8.41672 16.9498 7.05005C15.5831 5.68338 13.9331 5.00005 11.9998 5.00005C10.0665 5.00005 8.41647 5.68338 7.0498 7.05005C5.68314 8.41672 4.9998 10.0667 4.9998 12C4.9998 13.9334 5.68314 15.5834 7.0498 16.95C8.41647 18.3167 10.0665 19 11.9998 19ZM11.9998 15C11.1751 15 10.4688 14.7064 9.8808 14.119C9.2928 13.5317 8.99914 12.8254 8.9998 12C8.9998 11.1754 9.29347 10.469 9.8808 9.88105C10.4681 9.29305 11.1745 8.99938 11.9998 9.00005C12.8251 9.00005 13.5315 9.29372 14.1188 9.88105C14.7061 10.4684 14.9998 11.1747 14.9998 12C14.9998 12.8254 14.7061 13.5317 14.1188 14.119C13.5315 14.7064 12.8251 15 11.9998 15Z" fill="#5061FF"/>
</svg>
